REM MD5 ac63ac0968f6c925ee4c1b6963a4b3e5
FILE "Farland Story - Yottsu no Fuuin (Japan).bin" BINARY
  TRACK 01 MODE2/2352
    INDEX 01 00:00:00
  TRACK 02 AUDIO
    INDEX 00 50:42:17
    INDEX 01 50:44:17
  TRACK 03 AUDIO
    INDEX 00 51:35:17
    INDEX 01 51:37:17
  TRACK 04 AUDIO
    INDEX 00 52:03:61
    INDEX 01 52:05:61
  TRACK 05 AUDIO
    INDEX 00 52:59:49
    INDEX 01 53:01:49
REM LEADOUT 56:02:49
